<svg xmlns="http://www.w3.org/2000/svg" viewBox="0 0 24 24" fill="none" stroke="#ffffff" stroke-linecap="round" stroke-linejoin="round" id="Building-2--Streamline-Lucide" height="24" width="24">
  <desc>
    Building 2 Streamline Icon: https://streamlinehq.com
  </desc>
  <path d="M6 22V4a2 2 0 0 1 2 -2h8a2 2 0 0 1 2 2v18Z" stroke-width="2"></path>
  <path d="M6 12H4a2 2 0 0 0 -2 2v6a2 2 0 0 0 2 2h2" stroke-width="2"></path>
  <path d="M18 9h2a2 2 0 0 1 2 2v9a2 2 0 0 1 -2 2h-2" stroke-width="2"></path>
  <path d="M10 6h4" stroke-width="2"></path>
  <path d="M10 10h4" stroke-width="2"></path>
  <path d="M10 14h4" stroke-width="2"></path>
  <path d="M10 18h4" stroke-width="2"></path>
</svg>